<?xml version="1.0" encoding="UTF-8"?>
<svg width="31px" height="31px" viewBox="0 0 31 31" version="1.1" xmlns="http://www.w3.org/2000/svg" xmlns:xlink="http://www.w3.org/1999/xlink">
    <!-- Generator: Sketch 53.2 (72643) - https://sketchapp.com -->
    <title>search copy</title>
    <desc>Created with Sketch.</desc>
    <g id="Good-pill" stroke="none" stroke-width="1" fill="none" fill-rule="evenodd" opacity="0.400000006">
        <g id="Goodpill" transform="translate(-419.000000, -4683.000000)" fill="#3D4554" fill-rule="nonzero">
            <g id="search-copy" transform="translate(419.000000, 4683.000000)">
                <path d="M30.7075376,29.4462859 L23.2385848,21.9219761 C27.9271208,16.5448349 27.5065603,8.42411235 22.2875837,3.55882235 C17.0686071,-1.30646766 8.92835663,-1.16639554 3.88027199,3.87556336 C-1.16781265,8.91752225 -1.30805495,17.0478947 3.56314615,22.2605382 C8.43434725,27.4731817 16.5649361,27.8932318 21.9486102,23.2103853 L29.469162,30.7346951 C29.8262241,31.088435 30.4020745,31.088435 30.7591365,30.7346951 C31.0994295,30.364065 31.0763823,29.7885848 30.7075376,29.4462859 L30.7075376,29.4462859 Z M13.2154824,24.576099 C8.61711184,24.5917298 4.46353977,21.8350601 2.69658265,17.5948472 C0.929625522,13.3546344 1.89837315,8.46859839 5.14993101,5.22098623 C8.40148887,1.97337407 13.2934612,1.00580199 17.5388257,2.77061495 C21.7841902,4.53542791 24.5442091,8.6839597 24.5285594,13.2767503 C24.4933218,19.5025718 19.4488681,24.5409042 13.2154824,24.576099 L13.2154824,24.576099 Z" id="Shape" opacity="0.699999988"></path>
            </g>
        </g>
    </g>
</svg>